<svg xmlns="http://www.w3.org/2000/svg" viewBox="0 0 782.96 682.07"><defs><style>.cls-1{fill:#848588;}.cls-2{fill:#65a1f1;}</style></defs><title>chem</title><g id="Layer_2" data-name="Layer 2"><g id="Layer_1-2" data-name="Layer 1"><g id="BKDgSx.tif"><path class="cls-1" d="M530.5,369.83q-.52,1-1.1,1.9c-5-6.4-11.17-7.46-18.4-4a24.38,24.38,0,0,1-5,1.19,56.43,56.43,0,0,1-.54-5.64c.07-37.85-.19-75.71.56-113.55.16-8.2-2.49-12.13-9.17-15.94-31.37-17.88-62.62-36-93.56-54.61-7.14-4.3-12.6-4.31-19.58-.24q-50,29.21-100.44,57.71c-3,1.71-4.28,3.1-4.25,6.83.16,22.71,0,45.42-.22,68.13-.16,19.29-.48,38.57-.73,57.86a34.61,34.61,0,0,1-4.18-1.47c-10.28-5.12-10.27-5.14-19.05,2.65q-.66-.45-1.29-1c-.22-13.22-.66-26.43-.61-39.65.12-31.45.78-62.91.51-94.35-.07-8,2.64-12.9,9.18-16.62q35.08-20,70.07-40.11c12.83-7.35,25.61-14.8,38.53-22,5.47-3,7.89-6.65,7.84-13.51-.29-40.56.1-81.12.27-121.68,0-3,0-6.08.24-9.1C380.21,5.18,385.91-.19,392.78,0A12.53,12.53,0,0,1,405,12.59c.4,13.63.26,27.28.2,40.93-.14,29.56-.15,59.13-.74,88.68-.13,6.63,2,10.17,7.67,13.43,35.66,20.44,70.95,41.54,106.71,61.8,9.52,5.39,13.15,12,13,22.84-.72,40.54-.64,81.1-.89,121.65C530.91,364.55,530.65,367.19,530.5,369.83Z"/><path class="cls-1" d="M251.7,370.31q1.1,0,2.2,0c-3,7.56-.82,13.4,5.77,17.93,1.39,1,4.26,1.57,5.44,2.83-1.53,1.11-4.85,3.27-6.48,4.22-32.73,19-65.31,38.29-98.37,56.71-7.17,4-9.23,8.26-9.15,16,.36,36.11.45,72.23-.06,108.33-.12,8.34,2.62,13.06,9.65,17q50.42,28.5,100.44,57.7c3,1.74,4.83,2.13,8,.23,19.54-11.58,39.26-22.85,59-34.12,16.74-9.57,33.57-19,50.36-28.51a34.61,34.61,0,0,1,.83,4.35c.75,11.46.73,11.46,11.88,15.13q-.05.8-.18,1.59c-11.31,6.85-22.5,13.89-33.95,20.5-27.23,15.74-54.74,31-81.77,47.08-6.86,4.08-12.47,4.21-19,.44q-34.92-20.24-69.94-40.33C173.6,630,160.73,622.71,148,615.16c-5.38-3.2-9.71-3.46-15.62,0-34.89,20.68-70.13,40.77-105.26,61-2.63,1.52-5.24,3.09-8,4.37-6.8,3.19-14.3,1-17.6-5.07a12.53,12.53,0,0,1,4.71-16.91c11.58-7.21,23.44-14,35.26-20.78,25.61-14.77,51.15-29.65,77-44,5.79-3.23,7.79-6.84,7.74-13.39-.3-41.1.16-82.21-.36-123.31-.14-10.94,3.73-17.39,13.21-22.7,35.39-19.79,70.38-40.29,105.54-60.5C246.93,372.61,249.35,371.51,251.7,370.31Z"/><path class="cls-1" d="M391.05,609.69q.13-.79.18-1.59c6.7.17,10.47-3.81,12.25-9.56,1.08-3.47.85-7.35,1.22-11q52.29,30,104.54,60.08c5.19,3,9.29,4.76,15.49,1.07,33.26-19.78,66.83-39,100.42-58.26,4.08-2.34,6.05-4.76,6-9.71q-.29-59.36,0-118.72c0-4.33-1.37-6.85-5.18-9-13.92-7.75-27.68-15.78-41.44-23.81q-32.89-19.19-65.7-38.52c6.92-5,13.89-10,11.32-20.25l.87-.74c12,6.49,24.09,12.75,35.91,19.52,26.33,15.09,52.4,30.65,78.85,45.52,7.55,4.25,10.7,9.35,10.62,18.12-.37,41.11.18,82.22-.44,123.32-.14,9,3,13.65,10.38,17.84,35,19.76,69.8,40,104.66,60,1.64.94,3.37,1.77,4.93,2.83,6.81,4.64,8.82,11.4,5.32,17.6-4.22,7.45-12.66,8-18.75,4.38-16-9.48-32.21-18.59-48.32-27.88-21.36-12.33-42.83-24.47-64-37.17-5.68-3.41-9.82-3-15.36.23-35.3,20.81-70.94,41.06-106.19,62-8.43,5-15.18,3.83-23.07-.81-37-21.72-74.15-43.08-111.28-64.53A14,14,0,0,0,391.05,609.69Z"/><path class="cls-2" d="M277.68,368.24l.4.2L368.26,421c5.9,3.44,12,6.6,17.65,10.37,3.68,2.44,6.41,2.14,10.15-.05q54.45-31.89,109.12-63.41c7.63-4,15.25-8,22.83-.05l.24.27,1.24,1.48a4.38,4.38,0,0,1,.94,2c1.73,9.4-4.82,14.16-11.4,18.91l-.38.25Q464,422,409.39,453.21c-3.79,2.15-5.12,4.7-5.09,9,.25,41.7.3,83.4.4,125.1,0,.12,0,.23,0,.35-.34,3.64-.14,7.45-1.2,10.87-1.72,5.54-5.29,9.44-11.55,9.56a4.18,4.18,0,0,1-1.37-.22c-10.49-3.45-10.48-3.68-11.21-14.91a22,22,0,0,0-.63-3.44,3.45,3.45,0,0,1,.06-1.79,4.6,4.6,0,0,0,.26-1.33c.07-41.05,0-82.1.29-123.15,0-5.07-2.23-7.39-6.17-9.65-33.88-19.4-67.67-39-101.54-58.39-2.23-1.28-8-5.29-10.5-6.15-.73-.25,1.85,2.62,1.35,2a15.09,15.09,0,0,0-2.79-2.87c-6.22-4.27-8.51-9.71-6.23-16.66a4.35,4.35,0,0,1,1.4-2C264,362.13,264.49,362.28,277.68,368.24Z"/><rect class="cls-2" x="379.11" y="433.07" width="25" height="176" rx="12" ry="12"/><rect class="cls-2" x="310.77" y="328.09" width="26.05" height="163.53" rx="12" ry="12" transform="translate(-193.05 485.35) rotate(-60)"/></g></g></g></svg>